#N canvas 572 27 811 663 12;
#X obj 20 152 sequencer;
#X obj 20 38 tgl 15 0 empty empty empty 17 7 0 10 #fcfcfc #000000 #000000
0 1;
#X msg 168 81 60 62 - - 67 - - -;
#X obj 10 585 dac~;
#X obj 170 53 loadbang;
#X obj 20 57 metro 182;
#X obj 404 352 *~;
#X obj 432 304 else/brown~;
#X msg 480 200 - 1;
#X obj 419 227 sequencer;
#X obj 422 254 bng 15 250 50 0 empty empty empty 17 7 0 10 #fcfcfc
#000000 #000000;
#X obj 67 355 sequencer;
#N canvas 837 405 450 300 simpleSynth 0;
#X obj 28 76 mtof;
#X floatatom 28 102 5 0 0 0 - - - 0;
#X obj 68 70 bng 15 250 50 0 empty empty empty 17 7 0 10 #fcfcfc #000000
#000000;
#X obj 28 20 inlet;
#X obj 196 79 inlet;
#X obj 29 189 *~, f 6;
#X obj 28 263 outlet~;
#X obj 29 126 osc~;
#X obj 68 140 else/decay2~ 100 1000;
#X connect 0 0 1 0;
#X connect 1 0 7 0;
#X connect 2 0 8 0;
#X connect 3 0 0 0;
#X connect 3 0 2 0;
#X connect 4 0 8 2;
#X connect 5 0 6 0;
#X connect 7 0 5 0;
#X connect 8 0 5 1;
#X restore 67 383 pd simpleSynth;
#X msg 105 288 - 58;
#X msg 154 288 - 57;
#X msg 205 288 - 69;
#X obj 104 235 random 3;
#X obj 105 263 sel 0 1 2, f 22;
#X obj 107 161 random 100;
#X obj 107 186 > 80;
#X obj 107 211 sel 1;
#X obj 42 366 bng 15 250 50 0 empty empty empty 17 7 0 10 #fcfcfc #000000
#000000;
#X obj 53 183 bng 15 250 50 0 empty empty empty 17 7 0 10 #fcfcfc #000000
#000000;
#N canvas 837 405 450 300 simpleSynth 0;
#X obj 28 76 mtof;
#X floatatom 28 102 5 0 0 0 - - - 0;
#X obj 68 70 bng 15 250 50 0 empty empty empty 17 7 0 10 #fcfcfc #000000
#000000;
#X obj 28 20 inlet;
#X obj 196 79 inlet;
#X obj 29 189 *~, f 6;
#X obj 28 263 outlet~;
#X obj 29 126 osc~;
#X obj 68 140 else/decay2~ 100 1000;
#X connect 0 0 1 0;
#X connect 1 0 7 0;
#X connect 2 0 8 0;
#X connect 3 0 0 0;
#X connect 3 0 2 0;
#X connect 4 0 8 2;
#X connect 5 0 6 0;
#X connect 7 0 5 0;
#X connect 8 0 5 1;
#X restore 20 505 pd simpleSynth;
#X obj 18 553 *~ 0.2;
#X obj 541 246 random 100;
#X obj 251 288 random 500;
#X obj 424 274 else/decay2~ 50 100;
#X text 318 24 sequencer takes a list in the right inlet;
#X text 320 46 banging the left inlet will get the next value of the
sequence, f 64;
#X text 321 67 hyphens - are "rests" \, no value is triggered;
#X text 16 5 else/sequencer demo;
#X connect 0 0 22 0;
#X connect 0 0 23 0;
#X connect 1 0 5 0;
#X connect 2 0 0 1;
#X connect 4 0 2 0;
#X connect 4 0 8 0;
#X connect 5 0 0 0;
#X connect 5 0 9 0;
#X connect 5 0 11 0;
#X connect 5 0 18 0;
#X connect 5 0 25 0;
#X connect 6 0 24 0;
#X connect 7 0 6 0;
#X connect 8 0 9 1;
#X connect 9 0 10 0;
#X connect 10 0 27 0;
#X connect 11 0 12 0;
#X connect 11 0 21 0;
#X connect 12 0 24 0;
#X connect 13 0 11 1;
#X connect 14 0 11 1;
#X connect 15 0 11 1;
#X connect 16 0 17 0;
#X connect 17 0 13 0;
#X connect 17 1 14 0;
#X connect 17 2 15 0;
#X connect 18 0 19 0;
#X connect 19 0 20 0;
#X connect 20 0 16 0;
#X connect 20 0 26 0;
#X connect 23 0 24 0;
#X connect 24 0 3 0;
#X connect 24 0 3 1;
#X connect 25 0 27 2;
#X connect 26 0 12 1;
#X connect 26 0 23 1;
#X connect 27 0 6 1;
