#N canvas 599 244 560 300 12;
#X obj 22 163 m-poly~;
#X obj 22 135 else/note2pitch;
#X obj 23 58 tgl 15 0 empty empty empty 17 7 0 10 #fcfcfc #000000 #000000
0 1;
#X obj 13 224 dac~;
#X obj 21 192 *~ 0.2;
#X obj 23 81 metro 600;
#X obj 22 107 else/sequencer C4-Eb4-G4 Bb4 C5 Eb5 - F4-Ab4-B4 C4-C5-C6
C7 C8, f 67;
#X connect 0 0 4 0;
#X connect 1 0 0 0;
#X connect 2 0 5 0;
#X connect 4 0 3 0;
#X connect 4 0 3 1;
#X connect 5 0 6 0;
#X connect 6 0 1 0;
