#N canvas 939 51 450 300 12;
#X msg 11 35 1;
#X obj 10 10 loadbang;
#X obj 10 85 b;
#X obj 9 135 outlet;
#X msg 10 110 hello world!;
#X obj 10 60 metro 1000;
#X connect 0 0 5 0;
#X connect 1 0 0 0;
#X connect 2 0 4 0;
#X connect 4 0 3 0;
#X connect 5 0 2 0;
