#N canvas 855 345 450 477 12;
#X obj 100 281 playdir~;
#X floatatom 100 138 5 0 0 0 - - - 0;
#X obj 100 306 *~ 0.8;
#X obj 101 434 dac~;
#X obj 166 254 bng 15 250 50 0 empty empty empty 17 7 0 10 #fcfcfc
#000000 #000000;
#X obj 76 247 bng 15 250 50 0 empty empty empty 17 7 0 10 #fcfcfc #000000
#000000;
#X text 7 1 monzlib;
#X text 5 15 example patch;
#X text 6 28 m-onz 2022;
#X text 6 41 m-onz.net;
#N canvas 314 270 450 300 path 0;
#X obj 76 168 pdcontrol;
#X msg 76 140 dir;
#X obj 24 13 inlet;
#X obj 24 194 pack s s;
#X obj 24 40 symbol;
#X obj 35 69 b;
#X msg 24 224 \$2/sounds/\$1;
#X obj 147 30 loadbang;
#X msg 146 54 misc;
#X obj 23 251 outlet;
#X connect 0 0 3 1;
#X connect 1 0 0 0;
#X connect 2 0 4 0;
#X connect 3 0 6 0;
#X connect 4 0 3 0;
#X connect 4 0 5 0;
#X connect 5 0 1 0;
#X connect 6 0 9 0;
#X connect 7 0 8 0;
#X connect 8 0 4 0;
#X restore 221 148 pd path;
#X msg 232 71 misc;
#X msg 242 105 misc2;
#X connect 0 0 2 0;
#X connect 1 0 0 0;
#X connect 2 0 3 0;
#X connect 2 0 3 1;
#X connect 4 0 0 2;
#X connect 5 0 0 0;
#X connect 10 0 0 1;
#X connect 11 0 10 0;
#X connect 12 0 10 0;
