#N canvas 567 38 794 605 12;
#X obj 113 631 playdir~;
#X floatatom 113 607 5 0 0 0 - - - 0;
#X obj 113 723 *~ 0.8;
#X obj 114 851 dac~;
#X text 5 1 monzlib;
#X text 5 15 example patch;
#X text 6 28 m-onz 2022;
#X text 6 41 m-onz.net;
#X obj 413 148 bng 15 250 50 0 empty empty empty 17 7 0 10 #fcfcfc
#000000 #000000;
#X obj 330 233 sequencer;
#X obj 411 197 constrainedseq, f 26;
#X obj 411 27 tgl 15 0 empty empty empty 17 7 0 10 #fcfcfc #000000
#000000 0 1;
#X msg 642 158 1 2 3;
#X obj 419 232 print;
#X obj 333 635 playdir~;
#X msg 659 130 misc2;
#X floatatom 334 609 5 0 0 0 - - - 0;
#X obj 395 411 bng 15 250 50 0 empty empty empty 17 7 0 10 #fcfcfc
#000000 #000000;
#X obj 334 584 sequencer;
#X obj 394 431 constrainedseq, f 26;
#X obj 405 458 print;
#X obj 414 74 random 100;
#X obj 414 99 > 90;
#X obj 414 124 sel 1;
#X obj 395 332 random 100;
#X obj 395 357 > 90;
#X obj 395 382 sel 1;
#X obj 413 45 metro 94;
#X obj 660 104 loadbang;
#X connect 0 0 2 0;
#X connect 1 0 0 0;
#X connect 2 0 3 0;
#X connect 2 0 3 1;
#X connect 8 0 10 0;
#X connect 9 0 1 0;
#X connect 10 0 9 1;
#X connect 10 0 13 0;
#X connect 11 0 27 0;
#X connect 12 0 10 1;
#X connect 12 0 19 1;
#X connect 14 0 2 0;
#X connect 15 0 14 1;
#X connect 16 0 14 0;
#X connect 17 0 19 0;
#X connect 18 0 16 0;
#X connect 19 0 18 1;
#X connect 19 0 20 0;
#X connect 21 0 22 0;
#X connect 22 0 23 0;
#X connect 23 0 8 0;
#X connect 24 0 25 0;
#X connect 25 0 26 0;
#X connect 26 0 17 0;
#X connect 27 0 9 0;
#X connect 27 0 18 0;
#X connect 27 0 21 0;
#X connect 27 0 24 0;
#X connect 28 0 12 0;
#X connect 28 0 15 0;
