#N canvas 546 160 342 503 12;
#X msg 15 150 seek \$1;
#X msg 245 34 next;
#X obj 13 192 else/dir -ext .wav;
#X floatatom 14 40 5 0 0 0 - - - 0;
#X obj 13 440 else/play.file~ 0 1;
#X obj 13 354 pack s s;
#X obj 13 286 symbol;
#X msg 13 380 open \$1/\$2;
#X obj 13 259 b;
#X obj 13 465 outlet~;
#X obj 97 12 inlet;
#X obj 14 12 inlet;
#X obj 245 8 inlet;
#X msg 98 66 open \$1;
#X obj 99 40 symbol;
#X connect 0 0 2 0;
#X connect 1 0 2 0;
#X connect 2 0 8 0;
#X connect 2 0 5 1;
#X connect 3 0 0 0;
#X connect 4 0 9 0;
#X connect 5 0 7 0;
#X connect 6 0 5 0;
#X connect 7 0 4 0;
#X connect 8 0 6 0;
#X connect 10 0 14 0;
#X connect 11 0 3 0;
#X connect 12 0 1 0;
#X connect 13 0 2 0;
#X connect 14 0 13 0;
#X connect 14 0 6 1;
