#N canvas 842 94 335 291 12;
#X obj 18 105 js ./randseq.js, f 20;
#X obj 18 204 outlet;
#X obj 18 14 inlet;
#X obj 63 15 inlet;
#X obj 109 15 inlet;
#X obj 155 15 inlet;
#X connect 0 0 1 0;
#X connect 2 0 0 0;
#X connect 3 0 0 1;
#X connect 4 0 0 2;
#X connect 5 0 0 3;
