#N canvas 385 165 463 291 12;
#X declare -lib pdjs -path pdjs;
#X obj 18 204 outlet;
#X obj 18 14 inlet;
#X obj 63 15 inlet;
#X obj 109 15 inlet;
#X obj 155 15 inlet;
#X obj 171 105 declare -lib pdjs -path pdjs;
#X obj 18 105 js ./randseq.js, f 20;
#X connect 1 0 6 0;
#X connect 2 0 6 1;
#X connect 3 0 6 2;
#X connect 4 0 6 3;
#X connect 6 0 0 0;
